<?xml version="1.0" encoding="UTF-8"?>
<svg width="508.96" height="508.97" version="1.1" viewBox="0 0 508.96 508.97" xml:space="preserve"
     xmlns="http://www.w3.org/2000/svg">
  <path
      d="m253.32 0.0039644c-12.479 0.35052-24.173 9.586-27.287 21.695-0.55448 2.1828-0.84422 4.4242-0.98072 6.6698-0.0275 0.5549-0.0751 1.4511-0.0875 2.1343-0.031 6.2531 0.0494 12.507 0.0133 18.761 0.0219 69.191 0.0148 138.38 0.10001 207.57 0.84134 12.225 10.189 23.32 22.083 26.251 10.91 2.7977 23.343-1.202 30.306-10.123 4.5245-5.6559 6.7614-12.968 6.5694-20.179-0.1017-8.2159-0.0429-16.433-0.0743-24.65-0.0152-66.905-6e-3 -133.81-0.0656-200.71-0.73598-12.412-10.248-23.806-22.401-26.569-2.6725-0.64094-5.4303-0.88557-8.1751-0.84669z"
      color="#000000"
      style="font-feature-settings:normal;font-variant-alternates:normal;font-variant-caps:normal;font-variant-east-asian:normal;font-variant-ligatures:normal;font-variant-numeric:normal;font-variant-position:normal;font-variation-settings:normal;inline-size:0;isolation:auto;mix-blend-mode:normal;shape-margin:0;shape-padding:0;text-decoration-color:#000000;text-decoration-line:none;text-decoration-style:solid;text-indent:0;text-orientation:mixed;text-transform:none;white-space:normal"/>
  <path
      d="m253.32 225c-12.367 0.35015-23.96 9.4149-27.201 21.369-1.5965 5.9922-1.1045 12.25-1.125 18.381-0.0333 72.289 0.0343 144.58 0.0678 216.87 0.75077 12.291 10.111 23.496 22.06 26.455 10.948 2.8274 23.441-1.2038 30.401-10.182 4.4872-5.6472 6.7011-12.928 6.5147-20.108-0.10453-8.0492-0.0444-16.1-0.0776-24.15-0.0114-67.072-6e-3 -134.14-0.0639-201.21-0.73586-12.412-10.248-23.806-22.402-26.569-2.6722-0.63944-5.4306-0.88779-8.175-0.84701z"
      color="#000000"
      style="font-feature-settings:normal;font-variant-alternates:normal;font-variant-caps:normal;font-variant-east-asian:normal;font-variant-ligatures:normal;font-variant-numeric:normal;font-variant-position:normal;font-variation-settings:normal;inline-size:0;isolation:auto;mix-blend-mode:normal;shape-margin:0;shape-padding:0;text-decoration-color:#000000;text-decoration-line:none;text-decoration-style:solid;text-indent:0;text-orientation:mixed;text-transform:none;white-space:normal"/>
  <path
      d="m478.18 224.97c-75.189 0.0188-150.38 5e-3 -225.57 0.0905-12.269 0.59993-23.569 9.8131-26.634 21.709-3.0289 11.124 1.0772 23.947 10.317 30.943 6.1134 4.7536 14.065 6.8271 21.74 6.2849 74.579-0.0623 149.16 0.01 223.74-0.11513 12.258-0.82827 23.412-10.201 26.306-22.147 2.7963-10.84-1.2013-23.146-9.9821-30.134-5.5688-4.4825-12.774-6.8723-19.916-6.6306z"
      color="#000000"
      style="font-feature-settings:normal;font-variant-alternates:normal;font-variant-caps:normal;font-variant-east-asian:normal;font-variant-ligatures:normal;font-variant-numeric:normal;font-variant-position:normal;font-variation-settings:normal;inline-size:0;isolation:auto;mix-blend-mode:normal;shape-margin:0;shape-padding:0;text-decoration-color:#000000;text-decoration-line:none;text-decoration-style:solid;text-indent:0;text-orientation:mixed;text-transform:none;white-space:normal"/>
  <path
      d="m253.18 224.97c-75.189 0.0188-150.38 5e-3 -225.57 0.0905-12.269 0.59993-23.569 9.8131-26.634 21.709-3.0289 11.124 1.0772 23.947 10.317 30.943 3.8645 2.9994 8.4937 4.9581 13.297 5.828 0.46328 0.0837 1.2631 0.21468 1.8696 0.28372 2.5447 0.37177 5.1149 0.20528 7.6726 0.17263 74.212-0.0615 148.42 0.0102 222.64-0.11455 12.258-0.82827 23.412-10.201 26.306-22.147 2.7963-10.84-1.2013-23.146-9.9821-30.134-5.5688-4.4825-12.774-6.8723-19.916-6.6306z"
      color="#000000"
      style="font-feature-settings:normal;font-variant-alternates:normal;font-variant-caps:normal;font-variant-east-asian:normal;font-variant-ligatures:normal;font-variant-numeric:normal;font-variant-position:normal;font-variation-settings:normal;inline-size:0;isolation:auto;mix-blend-mode:normal;shape-margin:0;shape-padding:0;text-decoration-color:#000000;text-decoration-line:none;text-decoration-style:solid;text-indent:0;text-orientation:mixed;text-transform:none;white-space:normal"/>
</svg>