<?xml version="1.0" encoding="UTF-8"?>
<svg width="485" height="518.54" version="1.1" viewBox="0 0 485 518.54" xml:space="preserve"
     xmlns="http://www.w3.org/2000/svg">
<path
    d="m17.5 0c-9.6646 9.7e-4 -17.499 7.8354-17.5 17.5v72.488c9.641e-4 9.6646 7.8354 17.499 17.5 17.5h10.875v393.55c9.66e-4 9.6646 7.8354 17.499 17.5 17.5h393.25c9.6646-9.7e-4 17.499-7.8354 17.5-17.5v-393.55h10.875c9.6646-9.7e-4 17.499-7.8354 17.5-17.5v-72.488c-9.7e-4 -9.6646-7.8354-17.499-17.5-17.5zm17.5 35h415v37.488h-415zm145.64 72.488h123.73c-12.151 21.596-35.23 36.281-61.865 36.281-26.635 0-49.712-14.685-61.863-36.281zm-117.26 2e-3h79.074c14.443 41.469 53.896 71.279 100.05 71.279 46.157 0 85.609-29.811 100.05-71.279h79.07v376.05h-358.25zm130.13 246.34c-0.11721 1e-3 -0.2344 4e-3 -0.35156 8e-3 -0.11724 4e-3 -0.23443 9e-3 -0.35156 0.0156-0.23405 0.0129-0.46782 0.0304-0.70117 0.0527-0.35085 0.0331-0.70062 0.0767-1.0488 0.13086-0.11543 0.0184-0.23067 0.0379-0.34571 0.0586-0.11545 0.0203-0.23069 0.0418-0.3457 0.0645-0.11547 0.0229-0.23071 0.047-0.3457 0.0723-0.22893 0.0495-0.45684 0.1035-0.6836 0.16211-0.11359 0.0301-0.22688 0.0613-0.33984 0.0937-0.22531 0.0639-0.44931 0.13223-0.67187 0.20508-0.22288 0.0724-0.44428 0.14921-0.66407 0.23047-0.21982 0.0822-0.43796 0.1688-0.65429 0.25977-0.43292 0.18074-0.85839 0.37882-1.2754 0.59375-0.20861 0.10781-0.41503 0.21981-0.61914 0.33593-0.30555 0.17322-0.60582 0.35559-0.9004 0.54688-0.19665 0.12824-0.3907 0.26043-0.58203 0.39648-0.19158 0.13551-0.38042 0.27486-0.5664 0.41797-0.0925 0.072-0.18433 0.14491-0.27539 0.21875-0.0919 0.0733-0.18304 0.14752-0.27344 0.22266-0.17952 0.15074-0.35598 0.30506-0.5293 0.46289-0.0867 0.0786-0.17267 0.15799-0.25781 0.23828-0.25551 0.24181-0.50367 0.49128-0.74414 0.74805-0.0803 0.0858-0.15973 0.17238-0.23828 0.25976-0.15655 0.17464-0.30958 0.35242-0.45899 0.53321-0.22445 0.27077-0.4407 0.54823-0.64843 0.83203-0.13862 0.18933-0.27341 0.38142-0.4043 0.57617-0.0654 0.097-0.12989 0.19467-0.19336 0.29297-0.0635 0.099-0.12601 0.19859-0.1875 0.29883-0.0616 0.0996-0.1221 0.19991-0.18164 0.30078-0.0596 0.10097-0.11821 0.20254-0.17578 0.30469-0.17213 0.30687-0.33496 0.61886-0.48828 0.93554-0.0512 0.10561-0.10133 0.21174-0.15039 0.31836-0.19574 0.42625-0.37428 0.86019-0.53516 1.3008-0.0806 0.21981-0.1568 0.44121-0.22852 0.66407-0.10786 0.33551-0.20555 0.67421-0.29296 1.0156-0.0865 0.34073-0.1627 0.68398-0.22852 1.0293-0.0227 0.11501-0.0442 0.23025-0.0645 0.3457-0.0194 0.1157-0.0376 0.23159-0.0547 0.34766-0.0353 0.23178-0.0659 0.46425-0.0918 0.69726-0.0255 0.23328-0.0464 0.46705-0.0625 0.70117-0.0164 0.23412-0.0281 0.46854-0.0351 0.70313-0.01 0.3515-9e-3 0.70323 2e-3 1.0547 0.0109 0.35148 0.0324 0.70255 0.0644 1.0527 0.0106 0.11665 0.0223 0.23319 0.0352 0.34961 0.0266 0.23303 0.0578 0.4655 0.0937 0.69727 0.0351 0.23189 0.0748 0.46306 0.11914 0.69336 0.0223 0.11547 0.0457 0.23071 0.0703 0.3457 0.12382 0.57305 0.27636 1.1395 0.45703 1.6973 0.10847 0.33488 0.22701 0.66642 0.35547 0.99415 0.0425 0.10916 0.0862 0.21789 0.13086 0.32617 0.0451 0.10854 0.0914 0.21662 0.13867 0.32422 0.14078 0.32217 0.29124 0.64002 0.45117 0.95312 0.10717 0.2086 0.21852 0.41502 0.33399 0.61914 0.0576 0.10215 0.11617 0.20372 0.17578 0.30469 0.0595 0.10087 0.12009 0.20113 0.18164 0.30078 0.0622 0.0996 0.12531 0.19856 0.18945 0.29688 0.0635 0.099 0.12792 0.19727 0.19336 0.29492 0.0654 0.097 0.13185 0.19338 0.19922 0.28906 0.0674 0.0957 0.13577 0.1908 0.20508 0.28516 0.07 0.0945 0.14098 0.18822 0.21289 0.28125 0.0713 0.0932 0.14361 0.18562 0.2168 0.27734 0.0733 0.0912 0.14753 0.18173 0.22265 0.27148 0.15007 0.18015 0.30375 0.35727 0.46094 0.53125 0.23578 0.26119 0.47938 0.51521 0.73047 0.76172 0.0838 0.0822 0.16846 0.16361 0.25391 0.24414 0.34103 0.32137 0.69483 0.62891 1.0605 0.92188 0.54924 0.43986 1.1245 0.8462 1.7227 1.2168 0.10029 0.0622 0.2012 0.12342 0.30273 0.18359 0.10032 0.0596 0.20124 0.1182 0.30274 0.17578 0.30682 0.17345 0.61881 0.33758 0.93554 0.49219 0.21025 0.10255 0.42253 0.20088 0.63672 0.29492 0.21497 0.0942 0.43181 0.18406 0.65039 0.26953 0.10896 0.0428 0.21834 0.0844 0.32813 0.125 0.22044 0.0813 0.44249 0.15812 0.66602 0.23047 0.22322 0.0722 0.44787 0.13994 0.67382 0.20312 0.45118 0.12699 0.90728 0.2358 1.3672 0.32618 0.23028 0.045 0.46145 0.0854 0.69336 0.12109 0.23178 0.0353 0.46426 0.0659 0.69727 0.0918 0.11641 0.0135 0.23295 0.0259 0.3496 0.0371 0.45461 0.0419 0.91069 0.066 1.3672 0.0723h97.99c0.23452-4e-3 0.46894-0.0122 0.70312-0.0254 0.23404-0.0122 0.46781-0.0292 0.70117-0.0508 0.11666-0.0112 0.2332-0.0236 0.34961-0.0371 0.11668-0.0138 0.23323-0.0288 0.34961-0.0449 0.34866-0.0468 0.69582-0.10414 1.041-0.17188 0.11482-0.0229 0.22941-0.047 0.34375-0.0723 0.22894-0.0501 0.45685-0.1048 0.68359-0.16406 0.11359-0.0295 0.22688-0.0601 0.33985-0.0918 0.11296-0.0321 0.2256-0.0653 0.33789-0.0996 0.2241-0.0684 0.44679-0.14137 0.66796-0.21875 0.22167-0.077 0.44177-0.15834 0.66016-0.24414 0.21794-0.0862 0.43413-0.17666 0.64844-0.27149 0.21486-0.0947 0.42779-0.19364 0.63867-0.29687 0.21047-0.10323 0.41885-0.21067 0.625-0.32227 0.30931-0.16787 0.61348-0.34504 0.91211-0.53125 0.19917-0.12428 0.39583-0.25256 0.58984-0.38476 0.29066-0.19776 0.5753-0.40423 0.85352-0.61914 0.27879-0.2144 0.55105-0.43716 0.81641-0.66797 0.17634-0.15471 0.34955-0.31294 0.51953-0.47461 0.0854-0.0805 0.17009-0.16191 0.2539-0.24414 0.0835-0.0825 0.16621-0.16584 0.24805-0.25 0.16356-0.16734 0.32375-0.33795 0.48047-0.51172 0.0784-0.0878 0.15584-0.1763 0.23242-0.26562 0.0771-0.0884 0.15325-0.17762 0.22852-0.26758 0.22445-0.27077 0.4407-0.54823 0.64843-0.83203 0.0693-0.095 0.13769-0.19072 0.20508-0.28711 0.0674-0.0957 0.13378-0.19205 0.19922-0.28907 0.0654-0.097 0.12989-0.19467 0.19336-0.29297 0.0635-0.099 0.12601-0.19859 0.1875-0.29882 0.0609-0.0997 0.1208-0.19992 0.17969-0.30078 0.11933-0.20209 0.23459-0.40656 0.3457-0.61329 0.11031-0.20683 0.21645-0.41586 0.31836-0.62695 0.4096-0.84493 0.75055-1.7215 1.0195-2.6211 0.067-0.22463 0.12955-0.45059 0.1875-0.67774 0.058-0.22742 0.11138-0.45598 0.16016-0.68554 0.0489-0.22891 0.0931-0.45878 0.13281-0.68946 0.0793-0.46287 0.13985-0.92874 0.18164-1.3965 0.0103-0.11644 0.0194-0.23299 0.0273-0.34961 8e-3 -0.11711 0.0155-0.2343 0.0215-0.35156 6e-3 -0.11714 0.0103-0.23434 0.0137-0.35157 4e-3 -0.11716 7e-3 -0.23435 8e-3 -0.35156 5e-3 -0.58681-0.02-1.1735-0.0742-1.7578-0.0105-0.11665-0.0222-0.23319-0.0351-0.34961-0.0523-0.46621-0.12332-0.93013-0.21289-1.3906-0.0223-0.11481-0.0457-0.2294-0.0703-0.34374-0.0249-0.11485-0.0509-0.22944-0.0781-0.34376-0.10808-0.45672-0.23448-0.9089-0.37891-1.3555-0.036-0.11105-0.0731-0.22173-0.11132-0.33204-0.11506-0.33247-0.24012-0.66139-0.375-0.98632-0.0445-0.10853-0.0901-0.21661-0.13672-0.32422-0.0471-0.10725-0.0953-0.21403-0.14453-0.32031-0.0491-0.10662-0.0992-0.21275-0.15039-0.31836-0.0517-0.10535-0.10442-0.21017-0.15821-0.31446-0.0536-0.10472-0.10832-0.20889-0.16406-0.3125-0.0556-0.10278-0.11226-0.205-0.16992-0.30664-0.0576-0.10215-0.11617-0.20372-0.17578-0.30469-0.11901-0.20232-0.24208-0.40223-0.36914-0.5996-0.1276-0.19664-0.25914-0.39069-0.39454-0.58204-0.0674-0.0957-0.13576-0.19079-0.20507-0.28515-0.0694-0.0945-0.13969-0.18821-0.21094-0.28125-0.14277-0.18652-0.28929-0.37015-0.43945-0.55078-0.37522-0.45068-0.77286-0.88221-1.1914-1.293-0.16797-0.16424-0.33923-0.32508-0.51367-0.48242-0.17333-0.15717-0.3498-0.31085-0.5293-0.46094-0.0904-0.0751-0.18155-0.14936-0.27344-0.22266-0.18331-0.14631-0.36955-0.28891-0.55859-0.42773-0.0944-0.07-0.18941-0.13898-0.28516-0.20703-0.0957-0.0674-0.19204-0.13378-0.28906-0.19922-0.29114-0.19705-0.58815-0.38529-0.89062-0.56445-0.20209-0.11934-0.40656-0.2346-0.61329-0.34571-0.10296-0.0557-0.20648-0.11041-0.31054-0.16406-0.10429-0.0538-0.20911-0.10652-0.31446-0.1582-0.10561-0.0512-0.21173-0.10133-0.31835-0.15039-0.42552-0.19768-0.85881-0.37816-1.2988-0.54102-0.11028-0.0402-0.22096-0.0792-0.33203-0.11719-0.33203-0.11555-0.66747-0.22106-1.0059-0.3164-0.33916-0.0949-0.68112-0.17961-1.0254-0.25391-0.45816-0.0992-0.92012-0.18004-1.3848-0.24219-0.11639-0.0155-0.23293-0.0298-0.34961-0.043-0.11642-0.0129-0.23296-0.0246-0.34961-0.0351-0.45396-0.0419-0.90939-0.066-1.3652-0.0723z"
    color="#000000"
    style="font-feature-settings:normal;font-variant-alternates:normal;font-variant-caps:normal;font-variant-east-asian:normal;font-variant-ligatures:normal;font-variant-numeric:normal;font-variant-position:normal;font-variation-settings:normal;inline-size:0;isolation:auto;mix-blend-mode:normal;shape-margin:0;shape-padding:0;text-decoration-color:#000000;text-decoration-line:none;text-decoration-style:solid;text-indent:0;text-orientation:mixed;text-transform:none;white-space:normal"/>
</svg>