<?xml version="1.0" encoding="UTF-8"?>
<svg width="400.92" height="483.63" enable-background="new 0 0 490 490" version="1.1" viewBox="0 0 400.92 483.63"
     xmlns="http://www.w3.org/2000/svg">
  <path
      d="m280.51 0a17.502 17.502 0 0 0-12.336 5.0977l-45.105 44.914h-121.17-84.402a17.502 17.502 0 0 0-17.383 19.529l38.57 330.28 7.9805 68.332a17.502 17.502 0 0 0 17.381 15.471h272.82a17.502 17.502 0 0 0 17.381-15.471l7.959-68.156 0.00782-0.05078a17.502 17.502 0 0 0 0.01367-0.125l38.57-330.28a17.502 17.502 0 0 0-17.381-19.529h-45.445l-45.102-44.912a17.502 17.502 0 0 0-12.361-5.0996zm0.01172 42.195 7.7578 7.7246h-15.516l7.7578-7.7246zm-243.36 42.816h64.74 197.11 64.742l-34.482 295.28h-257.63l-34.482-295.28zm38.57 330.28h249.45l-3.8926 33.332h-241.67l-3.8926-33.332z"
      color="#000000"
      style="font-feature-settings:normal;font-variant-alternates:normal;font-variant-caps:normal;font-variant-east-asian:normal;font-variant-ligatures:normal;font-variant-numeric:normal;font-variant-position:normal;font-variation-settings:normal;inline-size:0;isolation:auto;mix-blend-mode:normal;shape-margin:0;shape-padding:0;text-decoration-color:#000000;text-decoration-line:none;text-decoration-style:solid;text-indent:0;text-orientation:mixed;text-transform:none;white-space:normal"/>
</svg>