<?xml version="1.0" encoding="UTF-8"?>
<svg width="484.9" height="484.89" version="1.1" viewBox="0 0 484.9 484.89" xml:space="preserve"
     xmlns="http://www.w3.org/2000/svg">
<g transform="translate(8.5714 8.3177)">
		<path
        d="m256.39-8.3184a17.502 17.502 0 0 0-17.521 17.5v102.65a17.5 17.5 0 0 0 17.5 17.5 17.5 17.5 0 0 0 17.5-17.5v-82.309c94.458 19.126 167.46 105.12 167.46 204.04 0 114.88-92.923 208.01-207.45 208.01s-207.45-93.128-207.45-208c0-58.999 25.173-115.49 68.998-154.92a17.5 17.5 0 0 0 1.3047-24.713 17.5 17.5 0 0 0-24.713-1.3066c-51.223 46.082-80.59 111.99-80.59 180.94 0 133.81 108.89 243 242.45 243s242.45-109.19 242.45-243.01c0-123.82-96.418-229.36-218.18-241.79a17.502 17.502 0 0 0-1.7559-0.091797z"
        color="#000000"
        style="font-feature-settings:normal;font-variant-alternates:normal;font-variant-caps:normal;font-variant-east-asian:normal;font-variant-ligatures:normal;font-variant-numeric:normal;font-variant-position:normal;font-variation-settings:normal;inline-size:0;isolation:auto;mix-blend-mode:normal;shape-margin:0;shape-padding:0;text-decoration-color:#000000;text-decoration-line:none;text-decoration-style:solid;text-indent:0;text-orientation:mixed;text-transform:none;white-space:normal"/>
  <path
      d="m129.63 77.355a17.502 17.502 0 0 0-1.0547 0.033203 17.502 17.502 0 0 0-0.70117 0.05664 17.502 17.502 0 0 0-0.34961 0.041016 17.502 17.502 0 0 0-1.3887 0.22656 17.502 17.502 0 0 0-0.68555 0.15625 17.502 17.502 0 0 0-0.34179 0.08789 17.502 17.502 0 0 0-0.67579 0.19727 17.502 17.502 0 0 0-0.33398 0.10742 17.502 17.502 0 0 0-0.99023 0.36523 17.502 17.502 0 0 0-0.96485 0.42578 17.502 17.502 0 0 0-0.93945 0.48047 17.502 17.502 0 0 0-0.30664 0.17383 17.502 17.502 0 0 0-0.30274 0.17969 17.502 17.502 0 0 0-0.29882 0.18359 17.502 17.502 0 0 0-0.29493 0.19141 17.502 17.502 0 0 0-0.29101 0.19726 17.502 17.502 0 0 0-0.28711 0.20312 17.502 17.502 0 0 0-0.28321 0.20898 17.502 17.502 0 0 0-0.82421 0.66016 17.502 17.502 0 0 0-1.0332 0.95312 17.502 17.502 0 0 0-1.1797 1.3047 17.502 17.502 0 0 0-0.21875 0.27539 17.502 17.502 0 0 0-0.21485 0.2793 17.502 17.502 0 0 0-0.20898 0.2832 17.502 17.502 0 0 0-0.20313 0.28711 17.502 17.502 0 0 0-0.19531 0.29102 17.502 17.502 0 0 0-0.19141 0.29688 17.502 17.502 0 0 0-0.18554 0.29883 17.502 17.502 0 0 0-0.35157 0.60938 17.502 17.502 0 0 0-0.32812 0.62305 17.502 17.502 0 0 0-0.15234 0.31641 17.502 17.502 0 0 0-0.14844 0.31836 17.502 17.502 0 0 0-0.4043 0.97461 17.502 17.502 0 0 0-0.12109 0.33008 17.502 17.502 0 0 0-0.32422 1.0039 17.502 17.502 0 0 0-0.0957 0.33984 17.502 17.502 0 0 0-0.24219 1.0254 17.502 17.502 0 0 0-0.06836 0.3457 17.502 17.502 0 0 0-0.1582 1.043 17.502 17.502 0 0 0-0.03907 0.34961 17.502 17.502 0 0 0-0.07617 1.0527 17.502 17.502 0 0 0-0.01172 0.35156 17.502 17.502 0 0 0 0.00977 1.0547 17.502 17.502 0 0 0 0.01758 0.35156 17.502 17.502 0 0 0 0.09375 1.0508 17.502 17.502 0 0 0 0.04492 0.34961 17.502 17.502 0 0 0 0.17969 1.041 17.502 17.502 0 0 0 0.07226 0.34375 17.502 17.502 0 0 0 0.26172 1.0215 17.502 17.502 0 0 0 0.10156 0.33789 17.502 17.502 0 0 0 0.3418 0.99804 17.502 17.502 0 0 0 0.12695 0.32813 17.502 17.502 0 0 0 0.42188 0.96679 17.502 17.502 0 0 0 0.15234 0.31641 17.502 17.502 0 0 0 0.49805 0.92969 17.502 17.502 0 0 0 0.17969 0.30469 17.502 17.502 0 0 0 0.57031 0.88671 17.502 17.502 0 0 0 0.20117 0.28711 17.502 17.502 0 0 0 0.64062 0.83985 17.502 17.502 0 0 0 0.22461 0.26953 17.502 17.502 0 0 0 0.67969 0.75781l120.46 123.1a17.502 17.502 0 0 0 0.50976 0.48633 17.502 17.502 0 0 0 0.52735 0.46484 17.502 17.502 0 0 0 0.54687 0.44141 17.502 17.502 0 0 0 0.2793 0.21484 17.502 17.502 0 0 0 1.1602 0.79492 17.502 17.502 0 0 0 0.30078 0.1836 17.502 17.502 0 0 0 0.30274 0.17968 17.502 17.502 0 0 0 0.30664 0.17188 17.502 17.502 0 0 0 0.62305 0.32422 17.502 17.502 0 0 0 0.31836 0.15234 17.502 17.502 0 0 0 1.2949 0.54883 17.502 17.502 0 0 0 1.3359 0.44141 17.502 17.502 0 0 0 0.67969 0.18164 17.502 17.502 0 0 0 0.3418 0.08007 17.502 17.502 0 0 0 0.68945 0.13868 17.502 17.502 0 0 0 0.34766 0.05859 17.502 17.502 0 0 0 0.34766 0.05273 17.502 17.502 0 0 0 0.69921 0.08399 17.502 17.502 0 0 0 0.70118 0.05469 17.502 17.502 0 0 0 2.1094-0.00391 17.502 17.502 0 0 0 1.3984-0.14453 17.502 17.502 0 0 0 0.34765-0.05274 17.502 17.502 0 0 0 0.34766-0.06054 17.502 17.502 0 0 0 0.3457-0.06641 17.502 17.502 0 0 0 1.0254-0.24414 17.502 17.502 0 0 0 0.67579-0.19727 17.502 17.502 0 0 0 0.99804-0.3457 17.502 17.502 0 0 0 0.65235-0.26367 17.502 17.502 0 0 0 0.32226-0.14063 17.502 17.502 0 0 0 0.31836-0.14843 17.502 17.502 0 0 0 0.31641-0.1543 17.502 17.502 0 0 0 0.3125-0.16016 17.502 17.502 0 0 0 0.91797-0.51953 17.502 17.502 0 0 0 0.88672-0.57226 17.502 17.502 0 0 0 0.8496-0.62696 17.502 17.502 0 0 0 0.54493-0.44531 17.502 17.502 0 0 0 0.26562-0.23047 17.502 17.502 0 0 0 1.0137-0.97461 17.502 17.502 0 0 0 0.24024-0.25586 17.502 17.502 0 0 0 0.23633-0.26172 17.502 17.502 0 0 0 0.23046-0.26562 17.502 17.502 0 0 0 0.22461-0.26953 17.502 17.502 0 0 0 0.22071-0.27539 17.502 17.502 0 0 0 0.21484-0.2793 17.502 17.502 0 0 0 0.20703-0.2832 17.502 17.502 0 0 0 0.20313-0.28711 17.502 17.502 0 0 0 0.19726-0.29297 17.502 17.502 0 0 0 0.19141-0.29492 17.502 17.502 0 0 0 0.18359-0.29883 17.502 17.502 0 0 0 0.17969-0.30273 17.502 17.502 0 0 0 0.17383-0.30664 17.502 17.502 0 0 0 0.16601-0.31055 17.502 17.502 0 0 0 0.16016-0.3125 17.502 17.502 0 0 0 0.1543-0.31641 17.502 17.502 0 0 0 0.14843-0.31836 17.502 17.502 0 0 0 0.14063-0.32226 17.502 17.502 0 0 0 0.13476-0.32618 17.502 17.502 0 0 0 0.12891-0.32617 17.502 17.502 0 0 0 0.12109-0.33007 17.502 17.502 0 0 0 0.11524-0.33399 17.502 17.502 0 0 0 0.10742-0.33398 17.502 17.502 0 0 0 0.10156-0.33594 17.502 17.502 0 0 0 0.09375-0.33985 17.502 17.502 0 0 0 0.08789-0.33984 17.502 17.502 0 0 0 0.08204-0.3418 17.502 17.502 0 0 0 0.07421-0.3457 17.502 17.502 0 0 0 0.06641-0.34375 17.502 17.502 0 0 0 0.06055-0.34765 17.502 17.502 0 0 0 0.05273-0.34766 17.502 17.502 0 0 0 0.04688-0.34766 17.502 17.502 0 0 0 0.03906-0.34961 17.502 17.502 0 0 0 0.03125-0.35156 17.502 17.502 0 0 0 0.02539-0.34961 17.502 17.502 0 0 0 0.01953-0.35156 17.502 17.502 0 0 0 0.00977-0.35156 17.502 17.502 0 0 0 0.0039-0.35157 17.502 17.502 0 0 0-0.00195-0.35351 17.502 17.502 0 0 0-0.01172-0.35156 17.502 17.502 0 0 0-0.01562-0.34961 17.502 17.502 0 0 0-0.02539-0.35157 17.502 17.502 0 0 0-0.03125-0.35156 17.502 17.502 0 0 0-0.03907-0.34961 17.502 17.502 0 0 0-0.04492-0.34765 17.502 17.502 0 0 0-0.05273-0.34766 17.502 17.502 0 0 0-0.0586-0.34766 17.502 17.502 0 0 0-0.0664-0.3457 17.502 17.502 0 0 0-0.07422-0.34375 17.502 17.502 0 0 0-0.08008-0.3418 17.502 17.502 0 0 0-0.08594-0.34179 17.502 17.502 0 0 0-0.09375-0.33789 17.502 17.502 0 0 0-0.10156-0.33789 17.502 17.502 0 0 0-0.10742-0.33399 17.502 17.502 0 0 0-0.11328-0.33398 17.502 17.502 0 0 0-0.1211-0.33008 17.502 17.502 0 0 0-0.1289-0.32813 17.502 17.502 0 0 0-0.13282-0.32422 17.502 17.502 0 0 0-0.14062-0.32226 17.502 17.502 0 0 0-0.14648-0.32031 17.502 17.502 0 0 0-0.1543-0.31641 17.502 17.502 0 0 0-0.16016-0.31445 17.502 17.502 0 0 0-0.16601-0.3086 17.502 17.502 0 0 0-0.17188-0.30859 17.502 17.502 0 0 0-0.17773-0.30274 17.502 17.502 0 0 0-0.18555-0.29882 17.502 17.502 0 0 0-0.18945-0.29688 17.502 17.502 0 0 0-0.19532-0.29101 17.502 17.502 0 0 0-0.20312-0.28907 17.502 17.502 0 0 0-0.20703-0.2832 17.502 17.502 0 0 0-0.21485-0.2793 17.502 17.502 0 0 0-0.21875-0.27539 17.502 17.502 0 0 0-0.22461-0.27148 17.502 17.502 0 0 0-0.22851-0.26563 17.502 17.502 0 0 0-0.23633-0.26172 17.502 17.502 0 0 0-0.21289-0.22851l-120.47-123.1a17.502 17.502 0 0 0-0.25195-0.24609 17.502 17.502 0 0 0-0.25586-0.24023 17.502 17.502 0 0 0-0.79883-0.68945 17.502 17.502 0 0 0-0.83984-0.63867 17.502 17.502 0 0 0-0.28906-0.20117 17.502 17.502 0 0 0-0.58789-0.38672 17.502 17.502 0 0 0-0.29883-0.18359 17.502 17.502 0 0 0-0.91992-0.51758 17.502 17.502 0 0 0-0.31446-0.1582 17.502 17.502 0 0 0-1.2852-0.57422 17.502 17.502 0 0 0-0.65821-0.24805 17.502 17.502 0 0 0-1.6836-0.50195 17.502 17.502 0 0 0-1.7285-0.33008 17.502 17.502 0 0 0-0.34765-0.044922 17.502 17.502 0 0 0-2.1055-0.12305z"
      color="#000000"
      style="font-feature-settings:normal;font-variant-alternates:normal;font-variant-caps:normal;font-variant-east-asian:normal;font-variant-ligatures:normal;font-variant-numeric:normal;font-variant-position:normal;font-variation-settings:normal;inline-size:0;isolation:auto;mix-blend-mode:normal;shape-margin:0;shape-padding:0;text-decoration-color:#000000;text-decoration-line:none;text-decoration-style:solid;text-indent:0;text-orientation:mixed;text-transform:none;white-space:normal"/>
</g>
</svg>