<?xml version="1.0" encoding="UTF-8"?>
<svg width="118.04mm" height="118.01mm" version="1.1" viewBox="0 0 118.04 118.01" xmlns="http://www.w3.org/2000/svg">
  <g transform="translate(-89.336 -124.11)">
    <path
        d="m148.37 124.11a4.6307 4.6307 0 0 0-3.291 1.3555l-54.389 54.375a4.6307 4.6307 0 0 0-1.3574 3.2734v54.375a4.6307 4.6307 0 0 0 4.6309 4.6309h40.791a4.6307 4.6307 0 0 0 4.6309-4.6309v-27.188c0-8.1367 4.4826-10.662 8.9668-10.662s8.9668 2.5254 8.9668 10.662v27.188a4.6307 4.6307 0 0 0 4.6308 4.6309h40.791a4.6307 4.6307 0 0 0 4.6309-4.6309v-54.375a4.6307 4.6307 0 0 0-1.3574-3.2734l-54.389-54.375a4.6307 4.6307 0 0 0-3.2559-1.3555zm-0.01758 11.178 49.76 49.746v47.824h-31.533v-22.557c0-12.254-9.1134-19.922-18.227-19.922s-18.229 7.6683-18.229 19.922v22.557h-31.531v-47.824l49.76-49.746z"
        color="#000000"
        style="font-feature-settings:normal;font-variant-alternates:normal;font-variant-caps:normal;font-variant-east-asian:normal;font-variant-ligatures:normal;font-variant-numeric:normal;font-variant-position:normal;font-variation-settings:normal;inline-size:0;isolation:auto;mix-blend-mode:normal;shape-margin:0;shape-padding:0;text-decoration-color:#000000;text-decoration-line:none;text-decoration-style:solid;text-indent:0;text-orientation:mixed;text-transform:none;white-space:normal"/>
    <path
        d="m98.596 185.03 49.76-49.746 49.76 49.746v47.824h-31.533l-5.712-29.671-12.516-8.1265-12.516 7.5595-5.712 30.238h-31.531z"
        fill-opacity="0"/>
  </g>
</svg>