<?xml version="1.0" encoding="UTF-8"?>
<svg width="484.98" height="485.02" version="1.1" viewBox="0 0 484.98 485.02" xml:space="preserve"
     xmlns="http://www.w3.org/2000/svg">
<g transform="translate(-1.36 -1.9273)">
	<path
      d="m18.848 1.9273a17.491 17.513 0 0 0-17.488 17.51v450a17.491 17.513 0 0 0 17.488 17.51h294.58a17.491 17.513 0 0 0 3.9944-0.46331 17.491 17.513 0 0 0 0.33132-0.0815 17.491 17.513 0 0 0 1.6362-0.50408 17.491 17.513 0 0 0 0.32021-0.12046 17.491 17.513 0 0 0 0.31837-0.12603 17.491 17.513 0 0 0 0.31651-0.13343 17.491 17.513 0 0 0 0.31281-0.13714 17.491 17.513 0 0 0 0.30911-0.14456 17.491 17.513 0 0 0 0.60157-0.30207 17.491 17.513 0 0 0 0.0111-6e-3 17.491 17.513 0 0 0 0.0703-0.0371 17.491 17.513 0 0 0 0.23138-0.12602 17.491 17.513 0 0 0 0.298-0.16864 17.491 17.513 0 0 0 0.29431-0.17421 17.491 17.513 0 0 0 0.0685-0.0408 17.491 17.513 0 0 0 0.22396-0.13899 17.491 17.513 0 0 0 0.0666-0.0426 17.491 17.513 0 0 0 0.22026-0.1427 17.491 17.513 0 0 0 0.0666-0.0445 17.491 17.513 0 0 0 0.21656-0.14826 17.491 17.513 0 0 0 0.24803-0.1742 17.491 17.513 0 0 0 0.0334-0.0222 17.491 17.513 0 0 0 0.0648-0.0463 17.491 17.513 0 0 0 0.211-0.15567 17.491 17.513 0 0 0 0.0629-0.0482 17.491 17.513 0 0 0 0.20915-0.15938 17.491 17.513 0 0 0 6e-3 -4e-3 17.491 17.513 0 0 0 0.20175-0.15938 17.491 17.513 0 0 0 0.0611-0.05 17.491 17.513 0 0 0 0.0611-0.05 17.491 17.513 0 0 0 0.2036-0.16865 17.491 17.513 0 0 0 0.0592-0.05 17.491 17.513 0 0 0 0.0555-0.0482 17.491 17.513 0 0 0 0.2036-0.17791 17.491 17.513 0 0 0 0.1962-0.17606 17.491 17.513 0 0 0 0.0573-0.0519 17.491 17.513 0 0 0 0.19249-0.18162 17.491 17.513 0 0 0 0.0573-0.0537 17.491 17.513 0 0 0 0.1888-0.18348 17.491 17.513 0 0 0 0.0573-0.0556 17.491 17.513 0 0 0 0.0296-0.0296l155.42-155.61a17.491 17.513 0 0 0 0.47385-0.49482 17.491 17.513 0 0 0 0.45533-0.5115 17.491 17.513 0 0 0 0-2e-3 17.491 17.513 0 0 0 0.22027-0.26131 17.491 17.513 0 0 0 0.21471-0.26872 17.491 17.513 0 0 0 0.41276-0.54486 17.491 17.513 0 0 0 0.3924-0.56339 17.491 17.513 0 0 0 0.18695-0.28725 17.491 17.513 0 0 0 0.1814-0.28911 17.491 17.513 0 0 0 0.67005-1.1954 17.491 17.513 0 0 0 0.29985-0.61715 17.491 17.513 0 0 0 0.14067-0.31319 17.491 17.513 0 0 0 0.71262-1.9255 17.491 17.513 0 0 0 0-2e-3 17.491 17.513 0 0 0 0.18695-0.6579 17.491 17.513 0 0 0 0-2e-3 17.491 17.513 0 0 0 0.57379-4.4478v-294.39a17.491 17.513 0 0 0-17.488-17.51zm17.49 35.021h415.02v259.37h-137.93a17.491 17.513 0 0 0-17.488 17.51v138.1h-259.6zm294.58 294.39h95.707l-95.707 95.826z"
      color="#000000"
      style="font-feature-settings:normal;font-variant-alternates:normal;font-variant-caps:normal;font-variant-east-asian:normal;font-variant-ligatures:normal;font-variant-numeric:normal;font-variant-position:normal;font-variation-settings:normal;inline-size:0;isolation:auto;mix-blend-mode:normal;shape-margin:0;shape-padding:0;text-decoration-color:#000000;text-decoration-line:none;text-decoration-style:solid;text-indent:0;text-orientation:mixed;text-transform:none;white-space:normal"/>
  <path
      d="m95.061 114.71a17.502 17.502 0 0 0-0.70312 0.0234 17.502 17.502 0 0 0-0.70117 0.0527 17.502 17.502 0 0 0-0.69922 0.0801 17.502 17.502 0 0 0-0.69531 0.10938 17.502 17.502 0 0 0-0.69141 0.13476 17.502 17.502 0 0 0-0.3418 0.0801 17.502 17.502 0 0 0-0.3418 0.084 17.502 17.502 0 0 0-1.0117 0.29688 17.502 17.502 0 0 0-0.66406 0.23242 17.502 17.502 0 0 0-1.2988 0.54297 17.502 17.502 0 0 0-0.94141 0.47461 17.502 17.502 0 0 0-0.30859 0.16992 17.502 17.502 0 0 0-0.30469 0.17774 17.502 17.502 0 0 0-0.29883 0.18359 17.502 17.502 0 0 0-0.29688 0.1875 17.502 17.502 0 0 0-1.1484 0.81445 17.502 17.502 0 0 0-0.54688 0.44141 17.502 17.502 0 0 0-1.5332 1.4492 17.502 17.502 0 0 0-0.23828 0.25976 17.502 17.502 0 0 0-0.45898 0.53321 17.502 17.502 0 0 0-0.64844 0.83203 17.502 17.502 0 0 0-0.4043 0.57422 17.502 17.502 0 0 0-0.19336 0.29492 17.502 17.502 0 0 0-0.54492 0.90429 17.502 17.502 0 0 0-0.16797 0.3086 17.502 17.502 0 0 0-0.16406 0.31055 17.502 17.502 0 0 0-0.15625 0.3164 17.502 17.502 0 0 0-0.29297 0.63867 17.502 17.502 0 0 0-0.13867 0.32422 17.502 17.502 0 0 0-0.13086 0.32617 17.502 17.502 0 0 0-0.35156 0.99415 17.502 17.502 0 0 0-0.29297 1.0137 17.502 17.502 0 0 0-0.16016 0.68554 17.502 17.502 0 0 0-0.13281 0.69141 17.502 17.502 0 0 0-0.10352 0.69531 17.502 17.502 0 0 0-0.10547 1.0508 17.502 17.502 0 0 0-0.02148 0.35157 17.502 17.502 0 0 0-0.01367 0.34961 17.502 17.502 0 0 0-0.0059 0.70507 17.502 17.502 0 0 0 0.0078 0.35157 17.502 17.502 0 0 0 0.03516 0.70117 17.502 17.502 0 0 0 0.0293 0.35156 17.502 17.502 0 0 0 0.07813 0.69922 17.502 17.502 0 0 0 0.10742 0.69531 17.502 17.502 0 0 0 0.0625 0.34571 17.502 17.502 0 0 0 0.23242 1.0293 17.502 17.502 0 0 0 0.52539 1.6777 17.502 17.502 0 0 0 0.125 0.33007 17.502 17.502 0 0 0 0.13086 0.32618 17.502 17.502 0 0 0 0.13867 0.32422 17.502 17.502 0 0 0 0.14453 0.32031 17.502 17.502 0 0 0 0.15039 0.3164 17.502 17.502 0 0 0 0.15625 0.31641 17.502 17.502 0 0 0 0.16406 0.31055 17.502 17.502 0 0 0 0.16992 0.30859 17.502 17.502 0 0 0 0.35742 0.60547 17.502 17.502 0 0 0 0.18945 0.29687 17.502 17.502 0 0 0 0.81055 1.1504 17.502 17.502 0 0 0 0.43945 0.54882 17.502 17.502 0 0 0 0.69922 0.79102 17.502 17.502 0 0 0 1.0039 0.98437 17.502 17.502 0 0 0 0.80274 0.6836 17.502 17.502 0 0 0 0.27734 0.21679 17.502 17.502 0 0 0 0.28125 0.2129 17.502 17.502 0 0 0 0.57422 0.40624 17.502 17.502 0 0 0 0.29297 0.19336 17.502 17.502 0 0 0 0.29883 0.1875 17.502 17.502 0 0 0 1.5391 0.84961 17.502 17.502 0 0 0 0.31641 0.15235 17.502 17.502 0 0 0 0.64453 0.2832 17.502 17.502 0 0 0 0.98633 0.375 17.502 17.502 0 0 0 1.3477 0.40625 17.502 17.502 0 0 0 0.33984 0.084 17.502 17.502 0 0 0 0.6875 0.14843 17.502 17.502 0 0 0 0.34766 0.0645 17.502 17.502 0 0 0 0.3457 0.0566 17.502 17.502 0 0 0 0.34961 0.0508 17.502 17.502 0 0 0 0.69726 0.0781 17.502 17.502 0 0 0 1.3672 0.0742h297.02a17.502 17.502 0 0 0 0.70313-0.0254 17.502 17.502 0 0 0 0.70117-0.0508 17.502 17.502 0 0 0 1.0469-0.13281 17.502 17.502 0 0 0 1.7226-0.35743 17.502 17.502 0 0 0 0.33985-0.0918 17.502 17.502 0 0 0 0.33593-0.0996 17.502 17.502 0 0 0 0.33594-0.10547 17.502 17.502 0 0 0 0.99414-0.35742 17.502 17.502 0 0 0 0.32422-0.13281 17.502 17.502 0 0 0 0.32422-0.13868 17.502 17.502 0 0 0 0.63672-0.29687 17.502 17.502 0 0 0 0.93359-0.49414 17.502 17.502 0 0 0 0.30469-0.17774 17.502 17.502 0 0 0 0.29883-0.18164 17.502 17.502 0 0 0 0.29687-0.18945 17.502 17.502 0 0 0 0.29297-0.19531 17.502 17.502 0 0 0 0.57422-0.40625 17.502 17.502 0 0 0 0.82813-0.6543 17.502 17.502 0 0 0 0.26757-0.22852 17.502 17.502 0 0 0 0.26368-0.23242 17.502 17.502 0 0 0 0.75781-0.73437 17.502 17.502 0 0 0 0.24414-0.25391 17.502 17.502 0 0 0 0.23828-0.25976 17.502 17.502 0 0 0 0.23242-0.26368 17.502 17.502 0 0 0 0.44922-0.54101 17.502 17.502 0 0 0 0.42578-0.55859 17.502 17.502 0 0 0 0.20508-0.28711 17.502 17.502 0 0 0 0.76172-1.1816 17.502 17.502 0 0 0 0.34375-0.61523 17.502 17.502 0 0 0 0.16406-0.31055 17.502 17.502 0 0 0 0.44922-0.95507 17.502 17.502 0 0 0 0.13867-0.32422 17.502 17.502 0 0 0 0.13086-0.32617 17.502 17.502 0 0 0 0.24024-0.66016 17.502 17.502 0 0 0 0.11132-0.33399 17.502 17.502 0 0 0 0.10352-0.33593 17.502 17.502 0 0 0 0.0977-0.33789 17.502 17.502 0 0 0 0.0918-0.33985 17.502 17.502 0 0 0 0.34766-1.7226 17.502 17.502 0 0 0 0.0488-0.34961 17.502 17.502 0 0 0 0.043-0.34961 17.502 17.502 0 0 0 0.0625-0.69922 17.502 17.502 0 0 0 0.0215-0.35156 17.502 17.502 0 0 0 0.0195-1.0547 17.502 17.502 0 0 0-0.043-1.0547 17.502 17.502 0 0 0-0.34961-2.4356 17.502 17.502 0 0 0-0.0762-0.34375 17.502 17.502 0 0 0-0.49023-1.6894 17.502 17.502 0 0 0-0.11914-0.33008 17.502 17.502 0 0 0-0.125-0.33008 17.502 17.502 0 0 0-0.41407-0.9707 17.502 17.502 0 0 0-0.15039-0.3164 17.502 17.502 0 0 0-0.15625-0.31446 17.502 17.502 0 0 0-0.16406-0.3125 17.502 17.502 0 0 0-0.3457-0.61328 17.502 17.502 0 0 0-0.76367-1.1797 17.502 17.502 0 0 0-0.41797-0.56836 17.502 17.502 0 0 0-0.2168-0.27539 17.502 17.502 0 0 0-0.44922-0.54101 17.502 17.502 0 0 0-0.47266-0.52149 17.502 17.502 0 0 0-0.49218-0.5039 17.502 17.502 0 0 0-0.51172-0.48242 17.502 17.502 0 0 0-0.26367-0.23243 17.502 17.502 0 0 0-0.53907-0.45117 17.502 17.502 0 0 0-0.27734-0.2168 17.502 17.502 0 0 0-0.56641-0.41796 17.502 17.502 0 0 0-0.28906-0.19922 17.502 17.502 0 0 0-0.89258-0.56446 17.502 17.502 0 0 0-0.30273-0.17773 17.502 17.502 0 0 0-0.93555-0.49023 17.502 17.502 0 0 0-0.3164-0.1504 17.502 17.502 0 0 0-0.64453-0.2832 17.502 17.502 0 0 0-0.32618-0.13281 17.502 17.502 0 0 0-0.32812-0.125 17.502 17.502 0 0 0-0.33203-0.11719 17.502 17.502 0 0 0-0.33399-0.11328 17.502 17.502 0 0 0-1.0137-0.29492 17.502 17.502 0 0 0-0.33984-0.084 17.502 17.502 0 0 0-0.34375-0.0781 17.502 17.502 0 0 0-0.34375-0.0703 17.502 17.502 0 0 0-0.34766-0.0645 17.502 17.502 0 0 0-0.69531-0.10742 17.502 17.502 0 0 0-0.34766-0.043 17.502 17.502 0 0 0-0.34961-0.0351 17.502 17.502 0 0 0-0.35156-0.0293 17.502 17.502 0 0 0-0.35156-0.0215 17.502 17.502 0 0 0-0.35157-0.0156 17.502 17.502 0 0 0-0.3125-6e-3z"
      color="#000000"
      style="font-feature-settings:normal;font-variant-alternates:normal;font-variant-caps:normal;font-variant-east-asian:normal;font-variant-ligatures:normal;font-variant-numeric:normal;font-variant-position:normal;font-variation-settings:normal;inline-size:0;isolation:auto;mix-blend-mode:normal;shape-margin:0;shape-padding:0;text-decoration-color:#000000;text-decoration-line:none;text-decoration-style:solid;text-indent:0;text-orientation:mixed;text-transform:none;white-space:normal"/>
  <path
      d="m95.061 209.15a17.502 17.502 0 0 0-0.70312 0.0254 17.502 17.502 0 0 0-0.70117 0.0508 17.502 17.502 0 0 0-0.69922 0.082 17.502 17.502 0 0 0-0.69531 0.10742 17.502 17.502 0 0 0-0.69141 0.13672 17.502 17.502 0 0 0-0.3418 0.0781 17.502 17.502 0 0 0-0.3418 0.0859 17.502 17.502 0 0 0-1.0117 0.29687 17.502 17.502 0 0 0-0.66406 0.23243 17.502 17.502 0 0 0-1.2988 0.54297 17.502 17.502 0 0 0-0.94141 0.4746 17.502 17.502 0 0 0-0.30859 0.16993 17.502 17.502 0 0 0-0.30469 0.17773 17.502 17.502 0 0 0-0.29883 0.18164 17.502 17.502 0 0 0-0.29688 0.18946 17.502 17.502 0 0 0-1.1484 0.81445 17.502 17.502 0 0 0-0.54688 0.4414 17.502 17.502 0 0 0-1.5332 1.4492 17.502 17.502 0 0 0-0.23828 0.25977 17.502 17.502 0 0 0-0.45898 0.53125 17.502 17.502 0 0 0-0.64844 0.83203 17.502 17.502 0 0 0-0.4043 0.57617 17.502 17.502 0 0 0-0.19336 0.29492 17.502 17.502 0 0 0-0.54492 0.9043 17.502 17.502 0 0 0-0.16797 0.30664 17.502 17.502 0 0 0-0.16406 0.3125 17.502 17.502 0 0 0-0.15625 0.31445 17.502 17.502 0 0 0-0.29297 0.64063 17.502 17.502 0 0 0-0.13867 0.32422 17.502 17.502 0 0 0-0.13086 0.32617 17.502 17.502 0 0 0-0.35156 0.99414 17.502 17.502 0 0 0-0.29297 1.0137 17.502 17.502 0 0 0-0.16016 0.68555 17.502 17.502 0 0 0-0.13281 0.69141 17.502 17.502 0 0 0-0.10352 0.69531 17.502 17.502 0 0 0-0.10547 1.0488 17.502 17.502 0 0 0-0.02148 0.35156 17.502 17.502 0 0 0-0.01367 0.35156 17.502 17.502 0 0 0-0.0059 0.70313 17.502 17.502 0 0 0 0.0078 0.35156 17.502 17.502 0 0 0 0.03516 0.70312 17.502 17.502 0 0 0 0.0293 0.35157 17.502 17.502 0 0 0 0.07813 0.69921 17.502 17.502 0 0 0 0.10742 0.69532 17.502 17.502 0 0 0 0.0625 0.3457 17.502 17.502 0 0 0 0.23242 1.0293 17.502 17.502 0 0 0 0.52539 1.6777 17.502 17.502 0 0 0 0.125 0.33008 17.502 17.502 0 0 0 0.13086 0.32617 17.502 17.502 0 0 0 0.13867 0.32227 17.502 17.502 0 0 0 0.14453 0.32031 17.502 17.502 0 0 0 0.15039 0.31836 17.502 17.502 0 0 0 0.15625 0.31445 17.502 17.502 0 0 0 0.16406 0.3125 17.502 17.502 0 0 0 0.16992 0.3086 17.502 17.502 0 0 0 0.35742 0.60547 17.502 17.502 0 0 0 0.18945 0.29687 17.502 17.502 0 0 0 0.81055 1.1484 17.502 17.502 0 0 0 0.43945 0.55078 17.502 17.502 0 0 0 0.69922 0.78906 17.502 17.502 0 0 0 1.0039 0.98633 17.502 17.502 0 0 0 0.80274 0.68359 17.502 17.502 0 0 0 0.27734 0.2168 17.502 17.502 0 0 0 0.28125 0.21094 17.502 17.502 0 0 0 0.57422 0.40625 17.502 17.502 0 0 0 0.29297 0.19531 17.502 17.502 0 0 0 0.29883 0.1875 17.502 17.502 0 0 0 1.5391 0.84961 17.502 17.502 0 0 0 0.31641 0.15039 17.502 17.502 0 0 0 0.64453 0.2832 17.502 17.502 0 0 0 0.98633 0.375 17.502 17.502 0 0 0 1.3477 0.40821 17.502 17.502 0 0 0 0.33984 0.084 17.502 17.502 0 0 0 0.6875 0.14844 17.502 17.502 0 0 0 0.34766 0.0644 17.502 17.502 0 0 0 0.3457 0.0566 17.502 17.502 0 0 0 0.34961 0.0508 17.502 17.502 0 0 0 0.69726 0.0781 17.502 17.502 0 0 0 1.3672 0.0723h297.02a17.502 17.502 0 0 0 0.70313-0.0234 17.502 17.502 0 0 0 0.70117-0.0527 17.502 17.502 0 0 0 1.0469-0.13086 17.502 17.502 0 0 0 1.7226-0.35742 17.502 17.502 0 0 0 0.33985-0.0937 17.502 17.502 0 0 0 0.33593-0.0977 17.502 17.502 0 0 0 0.33594-0.10742 17.502 17.502 0 0 0 0.99414-0.35742 17.502 17.502 0 0 0 0.32422-0.13086 17.502 17.502 0 0 0 0.32422-0.14062 17.502 17.502 0 0 0 0.63672-0.29688 17.502 17.502 0 0 0 0.93359-0.49219 17.502 17.502 0 0 0 0.30469-0.17773 17.502 17.502 0 0 0 0.29883-0.18359 17.502 17.502 0 0 0 0.29687-0.1875 17.502 17.502 0 0 0 0.29297-0.19532 17.502 17.502 0 0 0 0.57422-0.4082 17.502 17.502 0 0 0 0.82813-0.65234 17.502 17.502 0 0 0 0.26757-0.22852 17.502 17.502 0 0 0 0.26368-0.23437 17.502 17.502 0 0 0 0.75781-0.73243 17.502 17.502 0 0 0 0.24414-0.2539 17.502 17.502 0 0 0 0.23828-0.25977 17.502 17.502 0 0 0 0.23242-0.26367 17.502 17.502 0 0 0 0.44922-0.54102 17.502 17.502 0 0 0 0.42578-0.56054 17.502 17.502 0 0 0 0.20508-0.28516 17.502 17.502 0 0 0 0.76172-1.1836 17.502 17.502 0 0 0 0.34375-0.61328 17.502 17.502 0 0 0 0.16406-0.3125 17.502 17.502 0 0 0 0.44922-0.95313 17.502 17.502 0 0 0 0.13867-0.32422 17.502 17.502 0 0 0 0.13086-0.32617 17.502 17.502 0 0 0 0.24024-0.66016 17.502 17.502 0 0 0 0.11132-0.33398 17.502 17.502 0 0 0 0.10352-0.33594 17.502 17.502 0 0 0 0.0977-0.33789 17.502 17.502 0 0 0 0.0918-0.34179 17.502 17.502 0 0 0 0.34766-1.7227 17.502 17.502 0 0 0 0.0488-0.34766 17.502 17.502 0 0 0 0.043-0.34961 17.502 17.502 0 0 0 0.0625-0.70117 17.502 17.502 0 0 0 0.0215-0.35156 17.502 17.502 0 0 0 0.0195-1.0547 17.502 17.502 0 0 0-0.043-1.0547 17.502 17.502 0 0 0-0.34961-2.4355 17.502 17.502 0 0 0-0.0762-0.3418 17.502 17.502 0 0 0-0.49023-1.6894 17.502 17.502 0 0 0-0.11914-0.33203 17.502 17.502 0 0 0-0.125-0.32813 17.502 17.502 0 0 0-0.41407-0.9707 17.502 17.502 0 0 0-0.15039-0.31836 17.502 17.502 0 0 0-0.15625-0.31445 17.502 17.502 0 0 0-0.16406-0.31055 17.502 17.502 0 0 0-0.3457-0.61328 17.502 17.502 0 0 0-0.76367-1.1816 17.502 17.502 0 0 0-0.41795-0.56638 17.502 17.502 0 0 0-0.2168-0.27734 17.502 17.502 0 0 0-0.44922-0.53907 17.502 17.502 0 0 0-0.47266-0.52343 17.502 17.502 0 0 0-0.49218-0.50196 17.502 17.502 0 0 0-0.51172-0.48242 17.502 17.502 0 0 0-0.26367-0.23437 17.502 17.502 0 0 0-0.53907-0.44922 17.502 17.502 0 0 0-0.27734-0.2168 17.502 17.502 0 0 0-0.56641-0.41797 17.502 17.502 0 0 0-0.28906-0.20117 17.502 17.502 0 0 0-0.89258-0.56445 17.502 17.502 0 0 0-0.30273-0.17578 17.502 17.502 0 0 0-0.93555-0.49024 17.502 17.502 0 0 0-0.3164-0.15234 17.502 17.502 0 0 0-0.64453-0.28321 17.502 17.502 0 0 0-0.32618-0.13085 17.502 17.502 0 0 0-0.32812-0.125 17.502 17.502 0 0 0-0.33203-0.11915 17.502 17.502 0 0 0-0.33399-0.11132 17.502 17.502 0 0 0-1.0137-0.29493 17.502 17.502 0 0 0-0.33984-0.084 17.502 17.502 0 0 0-0.34375-0.0781 17.502 17.502 0 0 0-0.34375-0.0723 17.502 17.502 0 0 0-0.34766-0.0625 17.502 17.502 0 0 0-0.69531-0.10742 17.502 17.502 0 0 0-0.34766-0.043 17.502 17.502 0 0 0-0.34961-0.0352 17.502 17.502 0 0 0-0.35156-0.0293 17.502 17.502 0 0 0-0.35156-0.0215 17.502 17.502 0 0 0-0.35157-0.0156 17.502 17.502 0 0 0-0.3125-8e-3z"
      color="#000000"
      style="font-feature-settings:normal;font-variant-alternates:normal;font-variant-caps:normal;font-variant-east-asian:normal;font-variant-ligatures:normal;font-variant-numeric:normal;font-variant-position:normal;font-variation-settings:normal;inline-size:0;isolation:auto;mix-blend-mode:normal;shape-margin:0;shape-padding:0;text-decoration-color:#000000;text-decoration-line:none;text-decoration-style:solid;text-indent:0;text-orientation:mixed;text-transform:none;white-space:normal"/>
	</g>
</svg>