<?xml version="1.0" encoding="UTF-8"?>
<svg width="484.92" height="485.27" enable-background="new 0 0 512 512" version="1.1" viewBox="0 0 484.92 485.27"
     xmlns="http://www.w3.org/2000/svg">
  <g transform="translate(-43.4 -34.084)">
    <path
        d="m427.79 34.084c-9.4875 0-18.973 3.6538-26.287 10.963l-36.48 36.457-0.0352 0.0332a17.502 17.502 0 0 0-6e-3 0.0059 17.502 17.502 0 0 0-2e-3 2e-3l-268.56 268.73a17.502 17.502 0 0 0-0.20508 0.20898 17.502 17.502 0 0 0-0.17969 0.18946 17.502 17.502 0 0 0-0.0625 0.0664 17.502 17.502 0 0 0-0.03906 0.043 17.502 17.502 0 0 0-0.19727 0.2168 17.502 17.502 0 0 0-0.03906 0.043 17.502 17.502 0 0 0-0.19141 0.22265 17.502 17.502 0 0 0-0.22266 0.26563 17.502 17.502 0 0 0-0.0059 6e-3 17.502 17.502 0 0 0-0.03516 0.043 17.502 17.502 0 0 0-0.18359 0.22852 17.502 17.502 0 0 0-0.38281 0.50391 17.502 17.502 0 0 0-0.07422 0.10156 17.502 17.502 0 0 0-0.0078 0.01 17.502 17.502 0 0 0-0.19336 0.27734 17.502 17.502 0 0 0-0.0039 4e-3 17.502 17.502 0 0 0-0.16406 0.24219 17.502 17.502 0 0 0-0.15039 0.22852 17.502 17.502 0 0 0-0.05273 0.082 17.502 17.502 0 0 0-0.10938 0.17578 17.502 17.502 0 0 0-0.08594 0.14063 17.502 17.502 0 0 0-0.0098 0.0156 17.502 17.502 0 0 0-0.15039 0.25391 17.502 17.502 0 0 0-0.0293 0.0488 17.502 17.502 0 0 0-0.14453 0.25586 17.502 17.502 0 0 0-0.12109 0.22071 17.502 17.502 0 0 0-0.04687 0.0879 17.502 17.502 0 0 0-0.02734 0.0527 17.502 17.502 0 0 0-0.16016 0.3125 17.502 17.502 0 0 0-0.13672 0.2793 17.502 17.502 0 0 0-0.05859 0.12695 17.502 17.502 0 0 0-0.10547 0.23047 17.502 17.502 0 0 0-0.11914 0.26953 17.502 17.502 0 0 0-0.08203 0.19141 17.502 17.502 0 0 0-0.05469 0.13086 17.502 17.502 0 0 0-0.02148 0.0547 17.502 17.502 0 0 0-0.12695 0.32812 17.502 17.502 0 0 0-0.12305 0.33008 17.502 17.502 0 0 0-0.06641 0.1875l-47.896 139.21a17.502 17.502 0 0 0 22.24 22.242l138.99-47.803 0.18554-0.0625a17.502 17.502 0 0 0 0.14649-0.0527 17.502 17.502 0 0 0 0.33008-0.12109 17.502 17.502 0 0 0 0.32812-0.12696 17.502 17.502 0 0 0 0.1836-0.0742 17.502 17.502 0 0 0 0.0371-0.0156 17.502 17.502 0 0 0 0.20898-0.0879 17.502 17.502 0 0 0 0.0781-0.0332 17.502 17.502 0 0 0 0.14063-0.0625 17.502 17.502 0 0 0 0.17969-0.082 17.502 17.502 0 0 0 0.13867-0.0645 17.502 17.502 0 0 0 0.17969-0.0859 17.502 17.502 0 0 0 0.13867-0.0684 17.502 17.502 0 0 0 0.17578-0.0879 17.502 17.502 0 0 0 0.13672-0.0703 17.502 17.502 0 0 0 0.17578-0.0937 17.502 17.502 0 0 0 0.0176-0.01 17.502 17.502 0 0 0 0.23828-0.13086 17.502 17.502 0 0 0 0.0508-0.0273 17.502 17.502 0 0 0 0.0391-0.0215 17.502 17.502 0 0 0 0.25-0.14649 17.502 17.502 0 0 0 0.0156-8e-3 17.502 17.502 0 0 0 0.13281-0.0781 17.502 17.502 0 0 0 0.16992-0.10352 17.502 17.502 0 0 0 0.13086-0.082 17.502 17.502 0 0 0 0.16602-0.10547 17.502 17.502 0 0 0 0.1289-0.084 17.502 17.502 0 0 0 0.16407-0.10938 17.502 17.502 0 0 0 0.1289-0.0879 17.502 17.502 0 0 0 0.0215-0.0156 17.502 17.502 0 0 0 0.26367-0.18359 17.502 17.502 0 0 0 2e-3 -2e-3 17.502 17.502 0 0 0 0.16016-0.11524 17.502 17.502 0 0 0 0.043-0.0332 17.502 17.502 0 0 0 0.23828-0.17773 17.502 17.502 0 0 0 0.24609-0.19336 17.502 17.502 0 0 0 0.0312-0.0234 17.502 17.502 0 0 0 0.1211-0.0977 17.502 17.502 0 0 0 0.15234-0.125 17.502 17.502 0 0 0 0.53125-0.46093 17.502 17.502 0 0 0 0.25976-0.23829 17.502 17.502 0 0 0 0.25391-0.24218 17.502 17.502 0 0 0 0.15234-0.15039 17.502 17.502 0 0 0 0.0899-0.0899l8e-3 -8e-3a17.502 17.502 0 0 0 2e-3 -2e-3l268.45-268.62 8e-3 -8e-3 36.506-36.484c14.395-14.386 14.397-38.172 0.01-52.562l-2e-3 -2e-3 -63.445-63.52a17.502 17.502 0 0 0-0.0117-0.01172c-7.3137-7.3091-16.802-10.963-26.289-10.963zm-1.5469 35.719c0.24849-0.24833 2.8423-0.24802 3.0938 0l63.439 63.512a17.502 17.502 0 0 0 0.01 0.01c0.9282 0.92762 0.9282 2.1349 0 3.0625l-24.135 24.121-66.543-66.584zm-48.883 48.869 66.541 66.586-243.82 243.97-66.543-66.586zm-261.13 276.16 51.68 51.709-78.795 27.098z"
        color="#000000"
        style="font-feature-settings:normal;font-variant-alternates:normal;font-variant-caps:normal;font-variant-east-asian:normal;font-variant-ligatures:normal;font-variant-numeric:normal;font-variant-position:normal;font-variation-settings:normal;inline-size:0;isolation:auto;mix-blend-mode:normal;shape-margin:0;shape-padding:0;text-decoration-color:#000000;text-decoration-line:none;text-decoration-style:solid;text-indent:0;text-orientation:mixed;text-transform:none;white-space:normal"/>
  </g>
</svg>
