<?xml version="1.0" encoding="UTF-8"?>
<svg width="330.24" height="495" version="1.1" viewBox="0 0 330.24 495" xml:space="preserve"
     xmlns="http://www.w3.org/2000/svg">
<g transform="translate(-75.216 40.808)">
		<path
        d="m92.717-40.809a17.502 17.502 0 0 0-17.5 17.5v58.912a17.502 17.502 0 0 0 9.5879 15.607c-3.5531 6.0553-6.5449 13.283-7.9336 21.943-1.5146 9.4456-1.6543 21.897-1.6543 27.305v79.934 0.04883 111.37 0.04883 28.936a17.5 17.5 0 0 0 17.5 17.5 17.5 17.5 0 0 0 17.5-17.5v-11.436h28.963c21.177 45.799 61.233 72.418 101.16 72.418 40.407 0 79.297-27.917 100.89-72.418h29.232v91.127c0 10.475-8.2357 18.709-18.709 18.709h-222.83c-10.474 0-18.709-8.2349-18.709-18.709v-25.01a17.5 17.5 0 0 0-17.5-17.5 17.5 17.5 0 0 0-17.5 17.5v25.01c0 29.457 24.252 53.709 53.709 53.709h222.83c29.456 0 53.709-24.251 53.709-53.709v-108.58a17.502 17.502 0 0 0 0-0.04687v-111.37a17.502 17.502 0 0 0 0-0.04882v-67.982c0-9.9576-0.68464-21.598-6.6973-33.781a17.5 17.5 0 0 0-23.438-7.9473 17.5 17.5 0 0 0-7.9473 23.438c0.38461 0.77932 3.082 13.794 3.082 18.291v50.482h-37.85c-20.512-32.963-53.804-55.707-92.273-55.707-38.469 0-71.758 22.745-92.271 55.707h-37.85v-62.482c0-2.5493 0.83438-19.401 1.2129-21.762 1.5976-9.963 2.4145-10.023 7.5312-15.141a17.502 17.502 0 0 0 0.92383-1c-0.11678 0.13656 6.9939-6.1387 12.879-9.4531h255.2a17.502 17.502 0 0 0 17.5-17.5v-58.912a17.502 17.502 0 0 0-17.5-17.5h-295.24zm17.5 35h260.24v23.912h-260.24v-23.912zm-16.006 44.617c-0.10192 0.10193-0.20452 0.24788-0.30664 0.35156-0.19183 0.2182-0.43219 0.43177-0.61914 0.65039l0.92578-1.002zm146.13 103.43c27.064 0 51.833 17.391 66.754 46.186 7.689 15.268 13.234 43.129 13.234 56.084 0 14.722-2.482 28.663-6.8652 41.236-15.967 39.888-47.686 61.033-73.123 61.033-25.993 0-57.87-19.709-73.062-60.836-4.4248-12.623-6.9238-26.637-6.9238-41.434 0-14.546 3.7133-40.155 12.658-55.055a17.502 17.502 0 0 0 0.13476-0.22852 17.502 17.502 0 0 0 0.04297-0.07422 17.502 17.502 0 0 0 0.13086-0.23242 17.502 17.502 0 0 0 0.04102-0.07422 17.502 17.502 0 0 0 0.125-0.23437 17.502 17.502 0 0 0 0.04101-0.07617 17.502 17.502 0 0 0 0.02344-0.04492c14.918-28.834 39.706-46.25 66.789-46.25zm-130.12 55.707h21.451c-5.0249 17.132-6.3164 34.046-6.3164 46.562 0 10.245 1.0223 20.212 2.8164 29.852h-17.951v-76.414zm237.92 0h22.322v76.414h-17.951c1.7941-9.6394 2.8164-19.607 2.8164-29.852 0-13.444-2.3742-30.195-7.1875-46.562z"
        color="#000000"
        style="font-feature-settings:normal;font-variant-alternates:normal;font-variant-caps:normal;font-variant-east-asian:normal;font-variant-ligatures:normal;font-variant-numeric:normal;font-variant-position:normal;font-variation-settings:normal;inline-size:0;isolation:auto;mix-blend-mode:normal;shape-margin:0;shape-padding:0;text-decoration-color:#000000;text-decoration-line:none;text-decoration-style:solid;text-indent:0;text-orientation:mixed;text-transform:none;white-space:normal"/>
</g>
</svg>