<?xml version="1.0" encoding="UTF-8"?>
<svg width="484" height="484" version="1.1" viewBox="0 0 484 484" xml:space="preserve"
     xmlns="http://www.w3.org/2000/svg">
	<g transform="matrix(.99876 0 0 .99876 -3.4547 -3.4547)" fill="none">
		<g fill="none">
			<g>
				<path d="m415.6 283.55c-4.35 19.65-12.11 38.34-23.065 55.54l-3.715 5.83 31.825 44.55-31.175 31.18-44.56-31.83-5.825 3.71c-17.205 10.96-35.89 18.72-55.54 23.07l-6.75 1.5-8.99 53.94h-44.09l-8.99-53.94-6.75-1.5c-19.65-4.35-38.335-12.11-55.54-23.07l-5.825-3.71-44.56 31.83-31.175-31.18 31.825-44.55-3.715-5.83c-10.955-17.2-18.715-35.89-23.065-55.54l-1.495-6.75-53.945-8.99v-44.1l53.945-8.99 1.495-6.75c4.35-19.65 12.11-38.34 23.065-55.54l3.715-5.83-31.825-44.55 31.175-31.18 44.56 31.83 5.825-3.71c17.205-10.96 35.89-18.72 55.54-23.07l6.75-1.5 8.99-53.94h44.09l8.99 53.94 6.75 1.5c19.65 4.35 38.335 12.11 55.54 23.07l5.825 3.71 44.56-31.83 31.175 31.18-31.825 44.55 3.715 5.83c10.955 17.2 18.715 35.89 23.065 55.54l1.495 6.75 53.945 8.99v44.1l-53.945 8.99z" color="#000000" fill="none" style="font-feature-settings:normal;font-variant-alternates:normal;font-variant-caps:normal;font-variant-east-asian:normal;font-variant-ligatures:normal;font-variant-numeric:normal;font-variant-position:normal;font-variation-settings:normal;inline-size:0;isolation:auto;mix-blend-mode:normal;shape-margin:0;shape-padding:0;text-decoration-color:#000000;text-decoration-line:none;text-decoration-style:solid;text-indent:0;text-orientation:mixed;text-transform:none;white-space:normal"/>
        <path
            d="m224.14 3.459a17.524 17.524 0 0 0-17.283 14.641l-7.0332 42.195 4.457-0.99023c-21.59 4.7817-42.15 13.328-60.988 25.328l3.8652-2.4609-34.869-24.906a17.524 17.524 0 0 0-22.574 1.8691l-30.576 30.58a17.524 17.524 0 0 0-1.8672 22.574l24.9 34.855 2.457-3.8574c-11.999 18.84-20.545 39.406-25.326 61.002l0.99024-4.4707-42.191 7.0312a17.524 17.524 0 0 0-14.641 17.283v43.254a17.524 17.524 0 0 0 14.641 17.283l42.191 7.0312-0.99024-4.4707c4.7808 21.595 13.325 42.162 25.324 61.002l-2.457-3.8555-24.898 34.854a17.524 17.524 0 0 0 1.8672 22.574l30.576 30.58a17.524 17.524 0 0 0 22.574 1.8691l34.869-24.906-3.8652-2.4609c18.839 12 39.398 20.546 60.988 25.328l-4.457-0.99023 7.0332 42.195a17.524 17.524 0 0 0 17.283 14.641h43.242a17.524 17.524 0 0 0 17.283-14.641l7.0332-42.195-4.457 0.99023c21.591-4.7817 42.15-13.328 60.988-25.328l-3.8652 2.4609 34.869 24.906a17.524 17.524 0 0 0 22.574-1.8691l30.576-30.58a17.524 17.524 0 0 0 1.8672-22.574l-24.898-34.854-2.457 3.8555c11.999-18.84 20.543-39.407 25.324-61.002l-0.99023 4.4707 42.191-7.0312a17.524 17.524 0 0 0 14.641-17.283v-43.254a17.524 17.524 0 0 0-14.641-17.283l-42.191-7.0312 0.99023 4.4707c-4.781-21.596-13.327-42.162-25.326-61.002l2.457 3.8574 24.9-34.855a17.524 17.524 0 0 0-1.8672-22.574l-30.576-30.58a17.524 17.524 0 0 0-22.574-1.8691l-34.869 24.906 3.8652 2.4609c-18.839-12-39.397-20.546-60.988-25.328l4.457 0.99023-7.0332-42.195a17.524 17.524 0 0 0-17.283-14.641zm14.844 35.043h13.555l6.5371 39.213a17.524 17.524 0 0 0 13.48 14.223l7.0801 1.5742a17.524 17.524 0 0 0 0.0156 0.0039c17.588 3.8935 34.282 10.819 49.752 20.674a17.524 17.524 0 0 0 2e-3 2e-3l6.1094 3.8906a17.524 17.524 0 0 0 19.596-0.52148l32.412-23.15 9.5859 9.5859-23.148 32.402a17.524 17.524 0 0 0-0.51955 19.602l3.8965 6.1152c9.8476 15.462 16.775 32.163 20.668 49.75a17.524 17.524 0 0 0 0 2e-3l1.5684 7.0801a17.524 17.524 0 0 0 14.227 13.494l39.219 6.5352v13.566l-39.219 6.5352a17.524 17.524 0 0 0-14.227 13.494l-1.5684 7.0801a17.524 17.524 0 0 0 0 2e-3c-3.8938 17.589-10.821 34.293-20.67 49.756l-3.8926 6.1074a17.524 17.524 0 0 0 0.51757 19.604l23.148 32.402-9.5859 9.5859-32.412-23.15a17.524 17.524 0 0 0-19.596-0.52148l-6.1094 3.8906a17.524 17.524 0 0 0-2e-3 2e-3c-15.47 9.8546-32.164 16.78-49.752 20.674a17.524 17.524 0 0 0-0.0156 4e-3l-7.0801 1.5742a17.524 17.524 0 0 0-13.48 14.223l-6.5371 39.213h-13.555l-6.5371-39.213a17.524 17.524 0 0 0-13.478-14.223l-7.0781-1.5742a17.524 17.524 0 0 0-0.0176-4e-3c-17.588-3.8935-34.285-10.82-49.754-20.674a17.524 17.524 0 0 0-2e-3 -2e-3l-6.1094-3.8906a17.524 17.524 0 0 0-19.596 0.52148l-32.412 23.15-9.5859-9.5859 23.148-32.402a17.524 17.524 0 0 0 0.51757-19.604l-3.8926-6.1074-4e-3 -6e-3c-9.8465-15.461-16.773-32.163-20.666-49.75a17.524 17.524 0 0 0 0-2e-3l-1.5684-7.0801a17.524 17.524 0 0 0-14.226-13.494l-39.219-6.5352v-13.566l39.219-6.5352a17.524 17.524 0 0 0 14.227-13.494l1.5684-7.0801a17.524 17.524 0 0 0 0-2e-3c3.8934-17.587 10.82-34.288 20.668-49.75l2e-3 -4e-3 3.8945-6.1112a17.524 17.524 0 0 0-0.51953-19.602l-23.148-32.402 9.5859-9.5859 32.412 23.15a17.524 17.524 0 0 0 19.596 0.52148l6.1094-3.8906a17.524 17.524 0 0 0 2e-3 -2e-3c15.469-9.8543 32.166-16.78 49.754-20.674a17.524 17.524 0 0 0 0.0176-0.0039l7.0781-1.5742a17.524 17.524 0 0 0 13.479-14.223z"
            color="#000000" fill="#000"
            style="font-feature-settings:normal;font-variant-alternates:normal;font-variant-caps:normal;font-variant-east-asian:normal;font-variant-ligatures:normal;font-variant-numeric:normal;font-variant-position:normal;font-variation-settings:normal;inline-size:0;isolation:auto;mix-blend-mode:normal;shape-margin:0;shape-padding:0;text-decoration-color:#000000;text-decoration-line:none;text-decoration-style:solid;text-indent:0;text-orientation:mixed;text-transform:none;white-space:normal"/>
			</g>
	  </g>
	</g>
  <g transform="translate(-3.4784 -3.4784)">
			<g>
				<path
            d="m245.48 146.16c-54.606 0-99.318 44.713-99.318 99.318s44.713 99.318 99.318 99.318 99.318-44.713 99.318-99.318c0-54.606-44.713-99.318-99.318-99.318zm0 35c35.622 0 64.318 28.696 64.318 64.318 0 35.622-28.696 64.318-64.318 64.318-35.622 0-64.318-28.696-64.318-64.318s28.696-64.318 64.318-64.318z"
            color="#000000"
            style="font-feature-settings:normal;font-variant-alternates:normal;font-variant-caps:normal;font-variant-east-asian:normal;font-variant-ligatures:normal;font-variant-numeric:normal;font-variant-position:normal;font-variation-settings:normal;inline-size:0;isolation:auto;mix-blend-mode:normal;shape-margin:0;shape-padding:0;text-decoration-color:#000000;text-decoration-line:none;text-decoration-style:solid;text-indent:0;text-orientation:mixed;text-transform:none;white-space:normal"/>
        <path
            d="m245.76 164.34c44.899 0 81.42 36.521 81.42 81.42 0 44.899-36.521 81.42-81.42 81.42-44.899 0-81.42-36.521-81.42-81.42 0-44.899 36.521-81.42 81.42-81.42z"
            color="#000000" fill="none"
            style="font-feature-settings:normal;font-variant-alternates:normal;font-variant-caps:normal;font-variant-east-asian:normal;font-variant-ligatures:normal;font-variant-numeric:normal;font-variant-position:normal;font-variation-settings:normal;inline-size:0;isolation:auto;mix-blend-mode:normal;shape-margin:0;shape-padding:0;text-decoration-color:#000000;text-decoration-line:none;text-decoration-style:solid;text-indent:0;text-orientation:mixed;text-transform:none;white-space:normal"/>
			</g>
	</g>
</svg>