<?xml version="1.0" encoding="UTF-8"?>
<svg width="501" height="276.01" version="1.1" viewBox="0 0 501 276.01" xml:space="preserve"
     xmlns="http://www.w3.org/2000/svg">
<g transform="translate(-10.926 -143.34)">
		<path
        d="m260.24 143.36c-6.9124 0.28895-13.559 3.6064-18.154 8.7434-74.807 74.811-149.62 149.62-224.41 224.44-6.7436 7.1506-8.677 18.387-4.6851 27.374 3.6356 8.5686 12.278 14.799 21.595 15.355 7.6534 0.55614 15.493-2.5204 20.654-8.2153 68.741-68.708 137.45-137.44 206.18-206.16 69.238 69.235 138.47 138.48 207.73 207.69 7.1962 6.7841 18.526 8.68 27.538 4.5985 8.4464-3.6686 14.582-12.206 15.168-21.422 0.5976-7.7059-2.5104-15.606-8.2481-20.797-74.954-74.972-149.91-149.94-224.9-224.88-4.9378-4.5801-11.736-7.0476-18.461-6.7324z"
        color="#000000"
        style="font-feature-settings:normal;font-variant-alternates:normal;font-variant-caps:normal;font-variant-east-asian:normal;font-variant-ligatures:normal;font-variant-numeric:normal;font-variant-position:normal;font-variation-settings:normal;inline-size:0;isolation:auto;mix-blend-mode:normal;shape-margin:0;shape-padding:0;text-decoration-color:#000000;text-decoration-line:none;text-decoration-style:solid;text-indent:0;text-orientation:mixed;text-transform:none;white-space:normal"/>
</g>
</svg>