<?xml version="1.0" encoding="UTF-8"?>
<svg width="471.88" height="445.58" version="1.1" viewBox="0 0 471.88 445.58" xml:space="preserve"
     xmlns="http://www.w3.org/2000/svg">
<g transform="translate(-11.195 -32.496)">
  <path
      d="m413.45 221.89-18.822 29.508c32.108 20.482 53.449 56.3 53.449 97.209 0-0.93036-0.37755 1.3279-5.4844 4.9492-5.1068 3.6213-12.946 7.1664-18.795 9.3203-9.1379 3.365-20.454 6.3028-33.02 8.5293l6.1074 34.463c14.18-2.5126 27.334-5.8498 39.008-10.148 7.4943-2.7597 17.52-6.9313 26.943-13.613 9.4229-6.682 20.24-17.312 20.24-33.5 0-53.105-27.798-100.03-69.627-126.72z"
      color="#000000"
      style="font-feature-settings:normal;font-variant-alternates:normal;font-variant-caps:normal;font-variant-east-asian:normal;font-variant-ligatures:normal;font-variant-numeric:normal;font-variant-position:normal;font-variation-settings:normal;inline-size:0;isolation:auto;mix-blend-mode:normal;shape-margin:0;shape-padding:0;text-decoration-color:#000000;text-decoration-line:none;text-decoration-style:solid;text-indent:0;text-orientation:mixed;text-transform:none;white-space:normal"/>
  <path
      d="m332.87 32.496c-21.068 0-40.005 10.349-53.424 25.654l26.316 23.074c8.0435-9.1739 17.307-13.729 27.107-13.729 10.651 0 20.775 5.4058 29.139 16.166s14.139 26.654 14.139 44.521c0 17.867-5.7746 33.761-14.139 44.521s-18.488 16.168-29.139 16.168c-6.3859 0-12.385-1.9316-18.227-5.8438l-19.477 29.08c10.913 7.3091 23.929 11.764 37.703 11.764 22.862 0 43.125-12.132 56.771-29.688 13.646-17.556 21.506-40.757 21.506-66.002 0-25.245-7.8595-48.446-21.506-66.002-13.646-17.556-33.91-29.686-56.771-29.686z"
      color="#000000"
      style="font-feature-settings:normal;font-variant-alternates:normal;font-variant-caps:normal;font-variant-east-asian:normal;font-variant-ligatures:normal;font-variant-numeric:normal;font-variant-position:normal;font-variation-settings:normal;inline-size:0;isolation:auto;mix-blend-mode:normal;shape-margin:0;shape-padding:0;text-decoration-color:#000000;text-decoration-line:none;text-decoration-style:solid;text-indent:0;text-orientation:mixed;text-transform:none;white-space:normal"/>
  <path
      d="m96.092 256.58c-50.805 30.311-84.896 85.93-84.896 149.17 1e-6 17.796 11.759 30.196 22.719 38.143 10.96 7.9463 22.877 12.962 31.775 16.238 32.105 11.822 74.691 17.947 119.1 17.947 44.411 0 86.997-6.1257 119.1-17.947 8.899-3.2764 20.816-8.2919 31.775-16.238 10.959-7.9464 22.721-20.347 22.721-38.143 0-63.242-34.094-118.86-84.898-149.17l-17.934 30.057c40.577 24.21 67.832 68.44 67.832 119.12 0 1.4425-1.7231 5.0628-8.2656 9.8066-6.5425 4.7438-16.147 9.0886-23.322 11.73a17.502 17.502 0 0 0-2e-3 0c-26.127 9.6207-65.954 15.791-107.01 15.791-41.054 0-80.881-6.1704-107.01-15.791a17.502 17.502 0 0 0-2e-3 0c-7.1758-2.642-16.78-6.9869-23.322-11.73-6.5424-4.7436-8.2637-8.3631-8.2637-9.8066 0-50.679 27.254-94.908 67.83-119.12z"
      color="#000000"
      style="font-feature-settings:normal;font-variant-alternates:normal;font-variant-caps:normal;font-variant-east-asian:normal;font-variant-ligatures:normal;font-variant-numeric:normal;font-variant-position:normal;font-variation-settings:normal;inline-size:0;isolation:auto;mix-blend-mode:normal;shape-margin:0;shape-padding:0;text-decoration-color:#000000;text-decoration-line:none;text-decoration-style:solid;text-indent:0;text-orientation:mixed;text-transform:none;white-space:normal"/>
  <path
      d="m184.79 39.045c-26.158 0-49.445 13.748-65.307 33.99-15.862 20.243-25.105 47.185-25.105 76.557 0 29.372 9.2435 56.314 25.105 76.557 15.862 20.243 39.149 33.99 65.307 33.99s49.445-13.748 65.307-33.99c15.862-20.243 25.104-47.185 25.104-76.557 0-29.372-9.2416-56.314-25.104-76.557-15.862-20.243-39.148-33.99-65.307-33.99zm0 35c14.046 0 27.215 7.1237 37.758 20.578 10.543 13.454 17.652 33.035 17.652 54.969 0 21.934-7.1114 41.514-17.654 54.969-10.543 13.454-23.711 20.578-37.756 20.578-14.045 0-27.215-7.1237-37.758-20.578-10.543-13.454-17.654-33.035-17.654-54.969 0-21.934 7.1114-41.514 17.654-54.969 10.543-13.454 23.713-20.578 37.758-20.578z"
      color="#000000"
      style="font-feature-settings:normal;font-variant-alternates:normal;font-variant-caps:normal;font-variant-east-asian:normal;font-variant-ligatures:normal;font-variant-numeric:normal;font-variant-position:normal;font-variation-settings:normal;inline-size:0;isolation:auto;mix-blend-mode:normal;shape-margin:0;shape-padding:0;text-decoration-color:#000000;text-decoration-line:none;text-decoration-style:solid;text-indent:0;text-orientation:mixed;text-transform:none;white-space:normal"/>
</g>
</svg>