<?xml version="1.0" standalone="no"?>
<svg version="1.0" xmlns="http://www.w3.org/2000/svg"
     width="700.000000pt" height="700.000000pt" viewBox="0 0 700.000000 700.000000"
     preserveAspectRatio="xMidYMid meet">
  <metadata>
    Created by potrace 1.14, written by Peter Selinger 2001-2017
  </metadata>
  <g transform="translate(0.000000,700.000000) scale(0.100000,-0.100000)"
     fill="#000000" stroke="none">
    <path d="M3205 6989 c-778 -67 -1516 -394 -2088 -926 -869 -810 -1266 -1986
-1066 -3163 141 -829 600 -1603 1267 -2137 1194 -954 2878 -1020 4142 -162
1122 761 1703 2090 1500 3430 -200 1322 -1162 2432 -2441 2819 -416 125 -887
175 -1314 139z m1301 -2884 c415 -1023 801 -1976 858 -2117 l105 -258 -287 0
-288 0 -243 603 c-135 331 -255 626 -267 655 l-23 52 -873 -2 -873 -3 -262
-650 -261 -650 -281 -3 -280 -2 13 32 c19 44 1650 4063 1683 4145 l25 63 250
-2 250 -3 754 -1860z"/>
    <path d="M3474 5353 c-115 -412 -154 -522 -436 -1243 l-234 -595 348 -3 c192
-1 505 -1 696 0 l348 3 -238 615 c-131 338 -288 765 -349 948 -61 182 -112
332 -115 332 -2 0 -11 -26 -20 -57z"/>
  </g>
</svg>
